<svg xmlns="http://www.w3.org/2000/svg" width="1920" height="1080" viewBox="0 0 1920 1080">
  <defs>
    <linearGradient id="heroGrad" x1="0%" y1="0%" x2="100%" y2="100%">
      <stop offset="0%" style="stop-color:#2A4FA3"/>
      <stop offset="100%" style="stop-color:#2BB7A8"/>
    </linearGradient>
  </defs>
  <rect width="1920" height="1080" fill="url(#heroGrad)"/>
  <!-- Abstract dental clinic elements -->
  <circle cx="960" cy="400" r="150" fill="rgba(255,255,255,0.1)"/>
  <circle cx="1400" cy="600" r="200" fill="rgba(255,255,255,0.08)"/>
  <circle cx="400" cy="700" r="180" fill="rgba(255,255,255,0.06)"/>
  <!-- Tooth icon -->
  <path d="M920 300 C880 300 850 340 850 390 C850 450 870 510 910 520 C930 530 950 490 960 490 C970 490 990 530 1010 520 C1050 510 1070 450 1070 390 C1070 340 1040 300 1000 300 L920 300 Z" fill="rgba(255,255,255,0.3)" transform="translate(0, 50)"/>
  <text x="960" y="650" text-anchor="middle" font-family="Poppins, Arial" font-size="48" fill="rgba(255,255,255,0.4)">Premium Dental Care</text>
</svg>
